Coordinates
version=1
nRows=26
nColumns=24
inDegrees=yes

Units are S.I. units (second, meters, Newtons, ...)
Angles are in degrees.

endheader
time	pelvis_tilt	pelvis_list	pelvis_rotation	pelvis_tx	pelvis_ty	pelvis_tz	hip_flexion_r	hip_adduction_r	hip_rotation_r	knee_angle_r	ankle_angle_r	subtalar_angle_r	mtp_angle_r	hip_flexion_l	hip_adduction_l	hip_rotation_l	knee_angle_l	ankle_angle_l	subtalar_angle_l	mtp_angle_l	lumbar_extension	lumbar_bending	lumbar_rotation
      4.54500000	     33.97084713	      2.10108205	      5.93510016	     -0.09967258	      0.68003460	     -0.26655714	    -14.54059990	     -4.19811700	    -17.79492879	    -58.68257940	     13.84235652	      0.31552597	      0.00000000	    -30.48796738	      2.34554938	      0.96536497	    -13.75648071	     16.59504187	     13.87351833	      0.00000000	    -62.50616318	      2.97294111	     -4.30937114
      4.55000000	     33.82965251	      2.12473757	      6.21078907	     -0.09470213	      0.68021101	     -0.26641443	    -13.84080486	     -4.01773099	    -17.86317134	    -57.50305301	     14.35703211	      0.68353485	      0.00000000	    -31.01622117	      2.13334101	      0.99130556	    -13.32351913	     16.74642973	     14.10414854	      0.00000000	    -62.44064125	      3.05056568	     -4.31005670
      4.55500000	     33.72803736	      2.20819335	      6.52197527	     -0.08974026	      0.68032115	     -0.26626081	    -13.24342891	     -3.88440993	    -17.97739833	    -56.22625019	     14.82495557	      1.02038793	      0.00000000	    -31.58674014	      1.94039878	      1.02464848	    -12.89367024	     16.95749310	     14.45834168	      0.00000000	    -62.41714586	      3.11179915	     -4.37098509
      4.56000000	     33.64338706	      2.31057292	      6.83419689	     -0.08476501	      0.68037228	     -0.26607562	    -12.71217934	     -3.76047079	    -18.07994869	    -54.84835413	     15.21671175	      1.32826973	      0.00000000	    -32.16207249	      1.75743503	      1.07300743	    -12.49923431	     17.16543059	     14.77470162	      0.00000000	    -62.41236100	      3.15341958	     -4.45689612
      4.56500000	     33.56872022	      2.43809385	      7.14134364	     -0.07978997	      0.68035029	     -0.26589552	    -12.23487934	     -3.66420409	    -18.16508592	    -53.37967336	     15.54457510	      1.60085595	      0.00000000	    -32.74030357	      1.59864371	      1.14007400	    -12.12542725	     17.37912940	     15.06248831	      0.00000000	    -62.41937342	      3.17737532	     -4.56915231
      4.57000000	     33.47570130	      2.58282629	      7.41207420	     -0.07482714	      0.68023900	     -0.26571185	    -11.76692966	     -3.59869617	    -18.19531807	    -51.83181048	     15.80474586	      1.83922826	      0.00000000	    -33.28082043	      1.48259784	      1.20518190	    -11.79420241	     17.58423339	     15.29608174	      0.00000000	    -62.40744508	      3.17589770	     -4.69769317
      4.57500000	     33.40943299	      2.77067981	      7.71318401	     -0.06986898	      0.68005757	     -0.26550102	    -11.38085013	     -3.56515135	    -18.26025097	    -50.20306469	     16.00933817	      2.02490854	      0.00000000	    -33.85382089	      1.37472481	      1.30681689	    -11.45787651	     17.82928825	     15.53593010	      0.00000000	    -62.44676744	      3.14624443	     -4.86119016
      4.58000000	     33.27633820	      2.95874920	      7.90798762	     -0.06493137	      0.67974849	     -0.26524568	    -10.91750830	     -3.56978803	    -18.18292232	    -48.53168094	     16.13942172	      2.17397184	      0.00000000	    -34.33053791	      1.34826356	      1.38820239	    -11.18026310	     18.03239983	     15.65588227	      0.00000000	    -62.42667405	      3.04558791	     -5.02332810
      4.58500000	     33.21049810	      3.19059195	      8.20947409	     -0.05991951	      0.67942667	     -0.26509469	    -10.63550354	     -3.58457591	    -18.20198219	    -46.72040818	     16.19558045	      2.35038613	      0.00000000	    -34.88471904	      1.27932924	      1.52074915	    -10.91314798	     18.31049946	     15.92511233	      0.00000000	    -62.43330807	      3.02887195	     -5.25113610
      4.59000000	     33.03481411	      3.45475427	      8.31505316	     -0.05495303	      0.67890214	     -0.26479430	    -10.18082419	     -3.69594824	    -17.98405405	    -44.94761488	     16.25832864	      2.39704044	      0.00000000	    -35.31150298	      1.38642683	      1.60351543	    -10.68309305	     18.53018374	     15.92595237	      0.00000000	    -62.36332002	      2.81703884	     -5.40850900
      4.59500000	     32.99825980	      3.72789280	      8.66575953	     -0.04993454	      0.67848163	     -0.26463993	    -10.05221543	     -3.73890762	    -18.06084152	    -42.93907443	     16.16923862	      2.52933313	      0.00000000	    -35.88020660	      1.30523194	      1.77982709	    -10.46298566	     18.84249227	     16.22453592	      0.00000000	    -62.42828475	      2.80372136	     -5.75166880
      4.60000000	     32.80439038	      4.02235656	      8.71438049	     -0.04494600	      0.67778950	     -0.26435057	     -9.65115922	     -3.91279391	    -17.77175572	    -41.03292898	     16.13764786	      2.59564145	      0.00000000	    -36.28159239	      1.48205013	      1.87390235	    -10.27183203	     19.09101489	     16.19819059	      0.00000000	    -62.34672349	      2.53862860	     -5.92010279
      4.60500000	     32.77646872	      4.35443653	      9.05590446	     -0.03992916	      0.67724496	     -0.26418490	     -9.63268187	     -4.01612532	    -17.82547740	    -38.86300854	     15.95548557	      2.65433099	      0.00000000	    -36.84402868	      1.45187832	      2.05605966	    -10.10871588	     19.39650334	     16.43625965	      0.00000000	    -62.43012531	      2.49074480	     -6.36680734
      4.61000000	     32.56360699	      4.67486054	      9.08737906	     -0.03487092	      0.67641663	     -0.26389887	     -9.30906389	     -4.22755674	    -17.49496393	    -36.80317326	     15.86945520	      2.75912653	      0.00000000	    -37.22305844	      1.66222270	      2.12421423	     -9.95183171	     19.66141976	     16.39839871	      0.00000000	    -62.32876183	      2.20324948	     -6.56169499
      4.61500000	     32.56464477	      5.06162778	      9.43350366	     -0.02982499	      0.67576892	     -0.26375397	     -9.43987974	     -4.38474267	    -17.55324256	    -34.46618679	     15.68087828	      2.86022920	      0.00000000	    -37.80818239	      1.66566870	      2.36357154	     -9.84044645	     19.97701430	     16.58183124	      0.00000000	    -62.44630756	      2.13557725	     -7.02811389
      4.62000000	     32.32665877	      5.40121676	      9.42764359	     -0.02474470	      0.67481497	     -0.26347461	     -9.16682847	     -4.64023225	    -17.17591826	    -32.27694009	     15.47575800	      3.00337194	      0.00000000	    -38.15356797	      1.92208108	      2.37149474	     -9.72023298	     20.25997792	     16.55068396	      0.00000000	    -62.32131470	      1.81497885	     -7.27701036
      4.62500000	     32.24292354	      5.82251974	      9.67800655	     -0.01969621	      0.67399226	     -0.26324594	     -9.24932013	     -4.87517788	    -17.12558789	    -29.86357936	     15.21393138	      3.08844931	      0.00000000	    -38.63096620	      2.02119300	      2.49975106	     -9.67002942	     20.59599754	     16.79872733	      0.00000000	    -62.37531835	      1.65096440	     -7.79971446
      4.63000000	     31.98879193	      6.17354680	      9.66181371	     -0.01454704	      0.67293633	     -0.26294611	     -9.05585882	     -5.14613075	    -16.72293185	    -27.52841898	     15.00137131	      3.29234330	      0.00000000	    -38.94962621	      2.29224327	      2.50156163	     -9.59415662	     20.87971667	     16.75033189	      0.00000000	    -62.23654686	      1.31088855	     -8.03528786
      4.63500000	     31.94630730	      6.63250065	      9.95116802	     -0.00943627	      0.67206664	     -0.26276420	     -9.31889750	     -5.41205525	    -16.76472839	    -24.94594611	     14.75003410	      3.52405818	      0.00000000	    -39.46704026	      2.37932779	      2.66270557	     -9.58862334	     21.22164324	     17.02018655	      0.00000000	    -62.32905417	      1.17226449	     -8.62850949
      4.64000000	     31.83734788	      7.03808155	     10.09197229	     -0.00423605	      0.67107505	     -0.26254463	     -9.48451179	     -5.67659489	    -16.63375829	    -22.37018896	     14.50439991	      3.85646084	      0.00000000	    -39.92952975	      2.54418213	      2.76694610	     -9.56721143	     21.51811707	     17.05416556	      0.00000000	    -62.33917397	      0.95360799	     -9.04378861
      4.64500000	     31.55250881	      7.41179590	     10.02592941	      0.00097453	      0.66987739	     -0.26215946	     -9.36108941	     -5.99027416	    -16.18561764	    -19.89687465	     14.20687128	      4.10346706	      0.00000000	    -40.19147769	      2.85927878	      2.71877719	     -9.57214313	     21.81478456	     17.04585999	      0.00000000	    -62.18440180	      0.55373448	     -9.29277371
      4.65000000	     31.42737155	      7.88647460	     10.21990592	      0.00621237	      0.66882050	     -0.26182688	     -9.61354469	     -6.30610398	    -16.14544486	    -17.23493107	     13.97287249	      4.46938400	      0.00000000	    -40.60269480	      3.00928367	      2.78126924	     -9.64792923	     22.14864700	     17.40697384	      0.00000000	    -62.20238690	      0.31590774	     -9.88855720
      4.65500000	     31.31260248	      8.32544901	     10.36242437	      0.01157041	      0.66772944	     -0.26152081	     -9.89918837	     -6.59887974	    -16.05238471	    -14.56021815	     13.68209306	      4.90268773	      0.00000000	    -41.04728822	      3.17049450	      2.90105874	     -9.70027598	     22.43562860	     17.49509651	      0.00000000	    -62.20490612	      0.06373582	    -10.36031764
      4.66000000	     31.11615591	      8.75696416	     10.38954157	      0.01693007	      0.66651546	     -0.26106117	    -10.04257529	     -6.92521154	    -15.80302963	    -11.97984468	     13.37264460	      5.26704818	      0.00000000	    -41.38091676	      3.40699820	      2.91420449	     -9.80149672	     22.72923636	     17.67997105	      0.00000000	    -62.13937490	     -0.29291524	    -10.77946413
      4.66500000	     30.93005378	      9.20323887	     10.43218886	      0.02238308	      0.66528377	     -0.26056842	    -10.23000640	     -7.25954187	    -15.58039389	     -9.43568572	     13.06354086	      5.65723504	      0.00000000	    -41.72570080	      3.62961525	      2.96216153	     -9.92675062	     23.01565706	     17.87155571	      0.00000000	    -62.08245446	     -0.65416874	    -11.22054632
      4.67000000	     30.66153912	      9.58677063	     10.31912052	      0.02788044	      0.66392556	     -0.26000197	    -10.23521240	     -7.59555085	    -15.13939117	     -7.04661872	     12.68682093	      5.94549862	      0.00000000	    -41.97015644	      3.93526596	      2.93500342	    -10.06896084	     23.28610542	     17.91979884	      0.00000000	    -61.92724843	     -1.10263194	    -11.46512556
